<svg xmlns="http://www.w3.org/2000/svg" viewBox="0.0 0.0 800.0 180" width="800" height="180">
  <style>
    text { font-family: 'PingFang SC','Microsoft YaHei',Arial,sans-serif; }
    .title { font-size: 15px; font-weight: bold; fill: #333; }
    .panel-label { font-size: 12px; font-weight: bold; fill: #333; text-anchor: middle; }
    .panel-desc { font-size: 9px; fill: #888; text-anchor: middle; }
    .analogy-title { font-size: 13px; font-weight: bold; fill: #333; }
    .analogy-text { font-size: 11px; fill: #555; }
    .analogy-key { font-size: 11px; fill: #E74C3C; font-weight: bold; }
  </style>

  <defs>
    <!-- 6x6 blob body, 32 cells, fill inherits currentColor -->
    <g id="blob">
      <rect x="14" y="0" width="14" height="180" fill="currentColor"/><rect x="28" y="0" width="14" height="180" fill="currentColor"/><rect x="42" y="0" width="14" height="180" fill="currentColor"/><rect x="56" y="0" width="14" height="180" fill="currentColor"/>
      <rect x="0" y="14" width="14" height="180" fill="currentColor"/><rect x="14" y="14" width="14" height="180" fill="currentColor"/><rect x="28" y="14" width="14" height="180" fill="currentColor"/><rect x="42" y="14" width="14" height="180" fill="currentColor"/><rect x="56" y="14" width="14" height="180" fill="currentColor"/><rect x="70" y="14" width="14" height="180" fill="currentColor"/>
      <rect x="0" y="28" width="14" height="180" fill="currentColor"/><rect x="14" y="28" width="14" height="180" fill="currentColor"/><rect x="28" y="28" width="14" height="180" fill="currentColor"/><rect x="42" y="28" width="14" height="180" fill="currentColor"/><rect x="56" y="28" width="14" height="180" fill="currentColor"/><rect x="70" y="28" width="14" height="180" fill="currentColor"/>
      <rect x="0" y="42" width="14" height="180" fill="currentColor"/><rect x="14" y="42" width="14" height="180" fill="currentColor"/><rect x="28" y="42" width="14" height="180" fill="currentColor"/><rect x="42" y="42" width="14" height="180" fill="currentColor"/><rect x="56" y="42" width="14" height="180" fill="currentColor"/><rect x="70" y="42" width="14" height="180" fill="currentColor"/>
      <rect x="0" y="56" width="14" height="180" fill="currentColor"/><rect x="14" y="56" width="14" height="180" fill="currentColor"/><rect x="28" y="56" width="14" height="180" fill="currentColor"/><rect x="42" y="56" width="14" height="180" fill="currentColor"/><rect x="56" y="56" width="14" height="180" fill="currentColor"/><rect x="70" y="56" width="14" height="180" fill="currentColor"/>
      <rect x="14" y="70" width="14" height="180" fill="currentColor"/><rect x="28" y="70" width="14" height="180" fill="currentColor"/><rect x="42" y="70" width="14" height="180" fill="currentColor"/><rect x="56" y="70" width="14" height="180" fill="currentColor"/>
    </g>
    <!-- two 1x2 vertical eyes -->
    <g id="eyes">
      <rect x="14" y="28" width="14" height="180" fill="currentColor"/>
      <rect x="56" y="28" width="14" height="180" fill="currentColor"/>
    </g>
  </defs>

  <text x="400" y="28" class="title" text-anchor="middle">图 练手01.5 五种轮廓类型对比——同一个角色的不同勾边策略</text>

  <!-- Panel 1: 无轮廓 (no outline) -->
  <g transform="translate(40, 70)">
    <rect x="-6" y="-6" width="124" height="180" fill="#fafafa" stroke="#e0e0e0" stroke-width="1" rx="4"/>
    <g transform="translate(14, 14)">
      <use href="#blob" color="#5DADE2"/>
      <use href="#eyes" color="#fafafa"/>
    </g>
    <text x="56" y="132" class="panel-label">无轮廓</text>
    <text x="56" y="146" class="panel-desc">靠色块本身区分</text>
  </g>

  <!-- Panel 2: 黑色内描 (black inline: outer + inner details black) -->
  <g transform="translate(192, 70)">
    <rect x="-6" y="-6" width="124" height="180" fill="#fafafa" stroke="#e0e0e0" stroke-width="1" rx="4"/>
    <g transform="translate(14, 14)">
      <use href="#blob" x="-14" y="-14" color="#1C1C1C"/><use href="#blob" x="0" y="-14" color="#1C1C1C"/><use href="#blob" x="14" y="-14" color="#1C1C1C"/>
      <use href="#blob" x="-14" y="0" color="#1C1C1C"/><use href="#blob" x="14" y="0" color="#1C1C1C"/>
      <use href="#blob" x="-14" y="14" color="#1C1C1C"/><use href="#blob" x="0" y="14" color="#1C1C1C"/><use href="#blob" x="14" y="14" color="#1C1C1C"/>
      <use href="#blob" color="#5DADE2"/>
      <use href="#eyes" color="#1C1C1C"/>
    </g>
    <text x="56" y="132" class="panel-label">黑色内描</text>
    <text x="56" y="146" class="panel-desc">外轮廓+内部细节全黑</text>
  </g>

  <!-- Panel 3: 黑色外轮廓 (black contour: outer black, inner clean) -->
  <g transform="translate(344, 70)">
    <rect x="-6" y="-6" width="124" height="180" fill="#fafafa" stroke="#e0e0e0" stroke-width="1" rx="4"/>
    <g transform="translate(14, 14)">
      <use href="#blob" x="-14" y="-14" color="#1C1C1C"/><use href="#blob" x="0" y="-14" color="#1C1C1C"/><use href="#blob" x="14" y="-14" color="#1C1C1C"/>
      <use href="#blob" x="-14" y="0" color="#1C1C1C"/><use href="#blob" x="14" y="0" color="#1C1C1C"/>
      <use href="#blob" x="-14" y="14" color="#1C1C1C"/><use href="#blob" x="0" y="14" color="#1C1C1C"/><use href="#blob" x="14" y="14" color="#1C1C1C"/>
      <use href="#blob" color="#5DADE2"/>
      <use href="#eyes" color="#1A5276"/>
    </g>
    <text x="56" y="132" class="panel-label">黑色外轮廓</text>
    <text x="56" y="146" class="panel-desc">外黑，内部干净</text>
  </g>

  <!-- Panel 4: 彩色轮廓 (colored: dark version of body color) -->
  <g transform="translate(496, 70)">
    <rect x="-6" y="-6" width="124" height="180" fill="#fafafa" stroke="#e0e0e0" stroke-width="1" rx="4"/>
    <g transform="translate(14, 14)">
      <use href="#blob" x="-14" y="-14" color="#1A5276"/><use href="#blob" x="0" y="-14" color="#1A5276"/><use href="#blob" x="14" y="-14" color="#1A5276"/>
      <use href="#blob" x="-14" y="0" color="#1A5276"/><use href="#blob" x="14" y="0" color="#1A5276"/>
      <use href="#blob" x="-14" y="14" color="#1A5276"/><use href="#blob" x="0" y="14" color="#1A5276"/><use href="#blob" x="14" y="14" color="#1A5276"/>
      <use href="#blob" color="#5DADE2"/>
      <use href="#eyes" color="#1A5276"/>
    </g>
    <text x="56" y="132" class="panel-label">彩色轮廓</text>
    <text x="56" y="146" class="panel-desc">深色版本体色勾边</text>
  </g>

  <!-- Panel 5: 着色轮廓 (shaded: outline varies with light, top lighter, bottom darker) -->
  <g transform="translate(648, 70)">
    <rect x="-6" y="-6" width="124" height="180" fill="#fafafa" stroke="#e0e0e0" stroke-width="1" rx="4"/>
    <g transform="translate(14, 14)">
      <use href="#blob" x="-14" y="-14" color="#2E86C1"/><use href="#blob" x="0" y="-14" color="#2E86C1"/><use href="#blob" x="14" y="-14" color="#2E86C1"/>
      <use href="#blob" x="-14" y="0" color="#1A5276"/><use href="#blob" x="14" y="0" color="#1A5276"/>
      <use href="#blob" x="-14" y="14" color="#154360"/><use href="#blob" x="0" y="14" color="#154360"/><use href="#blob" x="14" y="14" color="#154360"/>
      <use href="#blob" color="#5DADE2"/>
      <use href="#eyes" color="#1A5276"/>
    </g>
    <text x="56" y="132" class="panel-label">着色轮廓</text>
    <text x="56" y="146" class="panel-desc">轮廓带光影变化</text>
  </g>

  <!-- Bottom: programmer analogy (outline = type-system boundary check strictness) -->
</svg>
