<svg xmlns="http://www.w3.org/2000/svg" viewBox="0 0 800 500" width="800" height="500">
  <style>
    text { font-family: 'PingFang SC','Microsoft YaHei',Arial,sans-serif; }
    .title { font-size: 16px; font-weight: bold; fill: #333; }
    .subtitle { font-size: 11px; fill: #666; }
    .mode-title { font-size: 13px; font-weight: bold; fill: #333; }
    .mode-desc { font-size: 10px; fill: #888; }
    .mode-use { font-size: 9px; fill: #E74C3C; }
    .cell-dark { fill: #2C3E50; }
    .cell-mid { fill: #5D6D7E; }
    .cell-light { fill: #aab7c4; }
    .cell-white { fill: #e8e8e8; }
    .grid-bg { fill: #fafafa; }
    .mode-box { fill: #F8F9FA; stroke: #dee2e6; stroke-width: 1; }
    .gradient-bar { stroke: none; }
  </style>

  <text x="400" y="28" class="title" text-anchor="middle">像素抖动四种模式对比（Four Dithering Modes）</text>

  <!-- ====== Mode 1: Ordered Dithering ====== -->
  <g transform="translate(30, 55)">
    <rect x="0" y="0" width="168" height="240" class="mode-box" rx="4"/>
    <text x="84" y="22" class="mode-title" text-anchor="middle">① 有序抖动 (Ordered)</text>

    <g transform="translate(10, 32)">
      <rect x="0" y="0" width="148" height="148" class="grid-bg" rx="2"/>
      <!-- Gradient from dark to light using ordered pattern -->
      <!-- Column 1 (darkest): dense dark cells -->
      <g class="cell-dark">
        <rect x="0" y="0" width="8" height="8"/>
        <rect x="8" y="8" width="8" height="8"/>
        <rect x="0" y="16" width="8" height="8"/>
        <rect x="8" y="24" width="8" height="8"/>
        <rect x="16" y="0" width="8" height="8"/>
        <rect x="24" y="8" width="8" height="8"/>
        <rect x="16" y="16" width="8" height="8"/>
        <rect x="24" y="24" width="8" height="8"/>
        <rect x="0" y="32" width="8" height="8"/>
        <rect x="8" y="40" width="8" height="8"/>
        <rect x="16" y="32" width="8" height="8"/>
        <rect x="24" y="40" width="8" height="8"/>
        <rect x="0" y="48" width="8" height="8"/>
        <rect x="8" y="56" width="8" height="8"/>
      </g>
      <!-- Col 2 -->
      <g class="cell-mid">
        <rect x="0" y="8" width="8" height="8"/>
        <rect x="8" y="0" width="8" height="8"/>
        <rect x="16" y="8" width="8" height="8"/>
        <rect x="24" y="0" width="8" height="8"/>
        <rect x="0" y="24" width="8" height="8"/>
        <rect x="8" y="16" width="8" height="8"/>
        <rect x="16" y="24" width="8" height="8"/>
        <rect x="24" y="16" width="8" height="8"/>
      </g>
      <!-- Column 2 (lighter) -->
      <rect x="32" y="0" width="8" height="8" class="cell-dark"/>
      <rect x="40" y="8" width="8" height="8" class="cell-dark"/>
      <rect x="48" y="0" width="8" height="8" class="cell-mid"/>
      <rect x="56" y="8" width="8" height="8" class="cell-mid"/>
      <rect x="32" y="16" width="8" height="8" class="cell-dark"/>
      <rect x="48" y="16" width="8" height="8" class="cell-mid"/>
      <rect x="40" y="24" width="8" height="8" class="cell-mid"/>
      <rect x="56" y="24" width="8" height="8" class="cell-light"/>

      <!-- Column 3 (mid-light) -->
      <rect x="64" y="0" width="8" height="8" class="cell-mid"/>
      <rect x="72" y="8" width="8" height="8" class="cell-mid"/>
      <rect x="80" y="0" width="8" height="8" class="cell-light"/>
      <rect x="88" y="8" width="8" height="8" class="cell-light"/>
      <rect x="64" y="16" width="8" height="8" class="cell-mid"/>
      <rect x="80" y="16" width="8" height="8" class="cell-light"/>
      <rect x="72" y="24" width="8" height="8" class="cell-light"/>
      <rect x="88" y="24" width="8" height="8" class="cell-white"/>

      <!-- Column 4 (lightest) -->
      <rect x="96" y="0" width="8" height="8" class="cell-light"/>
      <rect x="104" y="8" width="8" height="8" class="cell-light"/>
      <rect x="112" y="0" width="8" height="8" class="cell-white"/>
      <rect x="112" y="16" width="8" height="8" class="cell-white"/>
      <rect x="104" y="24" width="8" height="8" class="cell-white"/>
      <rect x="96" y="16" width="8" height="8" class="cell-light"/>

      <!-- Lower rows continuation -->
      <rect x="0" y="64" width="8" height="8" class="cell-dark"/>
      <rect x="8" y="72" width="8" height="8" class="cell-mid"/>
      <rect x="0" y="80" width="8" height="8" class="cell-mid"/>
      <rect x="16" y="64" width="8" height="8" class="cell-mid"/>
      <rect x="24" y="72" width="8" height="8" class="cell-light"/>

      <rect x="32" y="64" width="8" height="8" class="cell-mid"/>
      <rect x="40" y="72" width="8" height="8" class="cell-light"/>
      <rect x="48" y="64" width="8" height="8" class="cell-light"/>
      <rect x="56" y="72" width="8" height="8" class="cell-white"/>

      <rect x="64" y="64" width="8" height="8" class="cell-light"/>
      <rect x="72" y="72" width="8" height="8" class="cell-light"/>
      <rect x="80" y="64" width="8" height="8" class="cell-white"/>
      <rect x="88" y="72" width="8" height="8" class="cell-white"/>

      <rect x="96" y="64" width="8" height="8" class="cell-white"/>
      <rect x="104" y="72" width="8" height="8" class="cell-white"/>

      <!-- Gradient bar underneath -->
      <rect x="0" y="100" width="148" height="10" rx="2" fill="url(#grayGrad)"/>
      <text x="0" y="126" class="subtitle" font-size="9">暗</text>
      <text x="140" y="126" class="subtitle" font-size="9">亮</text>
    </g>

    <text x="84" y="210" class="mode-desc" text-anchor="middle">棋盘格式的规律排列</text>
    <text x="84" y="226" class="mode-use" text-anchor="middle">适合：大面积天空/水面过渡</text>
  </g>

  <!-- ====== Mode 2: Random Dithering ====== -->
  <g transform="translate(215, 55)">
    <rect x="0" y="0" width="168" height="240" class="mode-box" rx="4"/>
    <text x="84" y="22" class="mode-title" text-anchor="middle">② 随机抖动 (Random)</text>

    <g transform="translate(10, 32)">
      <rect x="0" y="0" width="148" height="148" class="grid-bg" rx="2"/>
      <!-- Random-ish pattern getting sparser toward right -->
      <rect x="0" y="0" width="6" height="6" class="cell-dark"/>
      <rect x="4" y="8" width="6" height="6" class="cell-dark"/>
      <rect x="10" y="2" width="6" height="6" class="cell-dark"/>
      <rect x="16" y="12" width="6" height="6" class="cell-mid"/>
      <rect x="0" y="18" width="6" height="6" class="cell-dark"/>
      <rect x="8" y="22" width="6" height="6" class="cell-mid"/>
      <rect x="14" y="16" width="6" height="6" class="cell-dark"/>
      <rect x="22" y="24" width="6" height="6" class="cell-mid"/>

      <rect x="30" y="2" width="6" height="6" class="cell-mid"/>
      <rect x="36" y="10" width="6" height="6" class="cell-dark"/>
      <rect x="44" y="4" width="6" height="6" class="cell-mid"/>
      <rect x="50" y="16" width="6" height="6" class="cell-light"/>
      <rect x="30" y="20" width="6" height="6" class="cell-mid"/>
      <rect x="40" y="26" width="6" height="6" class="cell-light"/>
      <rect x="52" y="22" width="6" height="6" class="cell-mid"/>

      <rect x="62" y="0" width="6" height="6" class="cell-light"/>
      <rect x="68" y="8" width="6" height="6" class="cell-mid"/>
      <rect x="76" y="2" width="6" height="6" class="cell-light"/>
      <rect x="82" y="14" width="6" height="6" class="cell-white"/>
      <rect x="60" y="18" width="6" height="6" class="cell-light"/>
      <rect x="72" y="26" width="6" height="6" class="cell-white"/>
      <rect x="84" y="20" width="6" height="6" class="cell-light"/>

      <rect x="94" y="4" width="6" height="6" class="cell-white"/>
      <rect x="100" y="12" width="6" height="6" class="cell-light"/>
      <rect x="110" y="2" width="6" height="6" class="cell-white"/>
      <rect x="106" y="22" width="6" height="6" class="cell-white"/>
      <rect x="118" y="8" width="6" height="6" class="cell-white"/>
      <rect x="124" y="18" width="6" height="6" class="cell-light"/>

      <rect x="0" y="32" width="6" height="6" class="cell-dark"/>
      <rect x="10" y="38" width="6" height="6" class="cell-mid"/>
      <rect x="0" y="46" width="6" height="6" class="cell-mid"/>
      <rect x="16" y="42" width="6" height="6" class="cell-dark"/>
      <rect x="24" y="34" width="6" height="6" class="cell-mid"/>
      <rect x="30" y="44" width="6" height="6" class="cell-light"/>
      <rect x="40" y="36" width="6" height="6" class="cell-light"/>
      <rect x="52" y="48" width="6" height="6" class="cell-white"/>
      <rect x="62" y="38" width="6" height="6" class="cell-white"/>
      <rect x="72" y="46" width="6" height="6" class="cell-white"/>
      <rect x="86" y="34" width="6" height="6" class="cell-white"/>
      <rect x="100" y="42" width="6" height="6" class="cell-white"/>
      <rect x="116" y="36" width="6" height="6" class="cell-white"/>

      <rect x="0" y="66" width="6" height="6" class="cell-mid"/>
      <rect x="14" y="58" width="6" height="6" class="cell-dark"/>
      <rect x="20" y="70" width="6" height="6" class="cell-mid"/>
      <rect x="34" y="62" width="6" height="6" class="cell-light"/>
      <rect x="44" y="74" width="6" height="6" class="cell-light"/>
      <rect x="58" y="66" width="6" height="6" class="cell-white"/>
      <rect x="70" y="58" width="6" height="6" class="cell-light"/>
      <rect x="80" y="74" width="6" height="6" class="cell-white"/>
      <rect x="96" y="62" width="6" height="6" class="cell-white"/>
      <rect x="110" y="70" width="6" height="6" class="cell-white"/>

      <rect x="0" y="82" width="6" height="6" class="cell-light"/>
      <rect x="16" y="90" width="6" height="6" class="cell-light"/>
      <rect x="30" y="84" width="6" height="6" class="cell-white"/>
      <rect x="48" y="94" width="6" height="6" class="cell-white"/>
      <rect x="66" y="88" width="6" height="6" class="cell-white"/>
      <rect x="86" y="96" width="6" height="6" class="cell-white"/>

      <rect x="0" y="0" width="148" height="10" rx="2" fill="url(#grayGrad)" transform="translate(0, 100)"/>
      <text x="0" y="126" class="subtitle" font-size="9">暗</text>
      <text x="140" y="126" class="subtitle" font-size="9">亮</text>
    </g>

    <text x="84" y="210" class="mode-desc" text-anchor="middle">无规律随机散布像素</text>
    <text x="84" y="226" class="mode-use" text-anchor="middle">适合：石头、树皮等自然质感</text>
  </g>

  <!-- ====== Mode 3: Bayer Matrix ====== -->
  <g transform="translate(400, 55)">
    <rect x="0" y="0" width="168" height="240" class="mode-box" rx="4"/>
    <text x="84" y="22" class="mode-title" text-anchor="middle">③ Bayer 矩阵</text>

    <g transform="translate(10, 32)">
      <rect x="0" y="0" width="148" height="148" class="grid-bg" rx="2"/>
      <!-- Bayer 4x4 matrix pattern -->
      <rect x="0" y="0" width="8" height="8" class="cell-dark"/>
      <rect x="8" y="0" width="8" height="8" class="cell-mid"/>
      <rect x="16" y="0" width="8" height="8" class="cell-mid"/>
      <rect x="24" y="0" width="8" height="8" class="cell-light"/>
      <rect x="0" y="8" width="8" height="8" class="cell-dark"/>
      <rect x="8" y="8" width="8" height="8" class="cell-mid"/>
      <rect x="16" y="8" width="8" height="8" class="cell-light"/>
      <rect x="24" y="8" width="8" height="8" class="cell-light"/>
      <rect x="0" y="16" width="8" height="8" class="cell-mid"/>
      <rect x="8" y="16" width="8" height="8" class="cell-light"/>
      <rect x="16" y="16" width="8" height="8" class="cell-light"/>
      <rect x="24" y="16" width="8" height="8" class="cell-white"/>
      <rect x="0" y="24" width="8" height="8" class="cell-light"/>
      <rect x="8" y="24" width="8" height="8" class="cell-light"/>
      <rect x="16" y="24" width="8" height="8" class="cell-white"/>
      <rect x="24" y="24" width="8" height="8" class="cell-white"/>

      <!-- Next 4x4 block -->
      <rect x="32" y="0" width="8" height="8" class="cell-dark"/>
      <rect x="40" y="0" width="8" height="8" class="cell-mid"/>
      <rect x="48" y="0" width="8" height="8" class="cell-light"/>
      <rect x="56" y="0" width="8" height="8" class="cell-light"/>
      <rect x="32" y="8" width="8" height="8" class="cell-mid"/>
      <rect x="40" y="8" width="8" height="8" class="cell-light"/>
      <rect x="48" y="8" width="8" height="8" class="cell-light"/>
      <rect x="56" y="8" width="8" height="8" class="cell-white"/>

      <rect x="64" y="0" width="8" height="8" class="cell-mid"/>
      <rect x="72" y="0" width="8" height="8" class="cell-light"/>
      <rect x="80" y="0" width="8" height="8" class="cell-white"/>
      <rect x="72" y="8" width="8" height="8" class="cell-white"/>
      <rect x="64" y="8" width="8" height="8" class="cell-light"/>

      <rect x="88" y="0" width="8" height="8" class="cell-light"/>
      <rect x="96" y="0" width="8" height="8" class="cell-white"/>
      <rect x="88" y="8" width="8" height="8" class="cell-white"/>

      <rect x="104" y="0" width="8" height="8" class="cell-white"/>

      <!-- Lower block -->
      <rect x="0" y="32" width="8" height="8" class="cell-dark"/>
      <rect x="8" y="32" width="8" height="8" class="cell-mid"/>
      <rect x="16" y="32" width="8" height="8" class="cell-mid"/>
      <rect x="24" y="32" width="8" height="8" class="cell-light"/>
      <rect x="0" y="40" width="8" height="8" class="cell-mid"/>
      <rect x="8" y="40" width="8" height="8" class="cell-light"/>
      <rect x="16" y="40" width="8" height="8" class="cell-light"/>
      <rect x="24" y="40" width="8" height="8" class="cell-white"/>
      <rect x="0" y="48" width="8" height="8" class="cell-mid"/>
      <rect x="8" y="48" width="8" height="8" class="cell-light"/>
      <rect x="16" y="48" width="8" height="8" class="cell-light"/>
      <rect x="24" y="48" width="8" height="8" class="cell-white"/>
      <rect x="0" y="56" width="8" height="8" class="cell-light"/>
      <rect x="8" y="56" width="8" height="8" class="cell-light"/>
      <rect x="16" y="56" width="8" height="8" class="cell-white"/>
      <rect x="24" y="56" width="8" height="8" class="cell-white"/>

      <rect x="0" y="64" width="8" height="8" class="cell-mid"/>
      <rect x="8" y="64" width="8" height="8" class="cell-light"/>
      <rect x="0" y="72" width="8" height="8" class="cell-light"/>
      <rect x="8" y="72" width="8" height="8" class="cell-white"/>
      <rect x="16" y="64" width="8" height="8" class="cell-light"/>
      <rect x="24" y="64" width="8" height="8" class="cell-white"/>
      <rect x="16" y="72" width="8" height="8" class="cell-white"/>

      <rect x="32" y="32" width="8" height="8" class="cell-mid"/>
      <rect x="40" y="32" width="8" height="8" class="cell-light"/>
      <rect x="48" y="32" width="8" height="8" class="cell-light"/>
      <rect x="56" y="32" width="8" height="8" class="cell-white"/>
      <rect x="32" y="40" width="8" height="8" class="cell-light"/>
      <rect x="40" y="40" width="8" height="8" class="cell-white"/>
      <rect x="32" y="48" width="8" height="8" class="cell-light"/>
      <rect x="40" y="48" width="8" height="8" class="cell-white"/>
      <rect x="48" y="40" width="8" height="8" class="cell-white"/>

      <!-- Bayer threshold values indicator -->
      <text x="74" y="116" class="subtitle" font-size="8">4×4 Bayer: [0,8,2,10 / 12,4,14,6 / 3,11,1,9 / 15,7,13,5]</text>

      <rect x="0" y="0" width="148" height="10" rx="2" fill="url(#grayGrad)" transform="translate(0, 100)"/>
      <text x="0" y="126" class="subtitle" font-size="9">暗</text>
      <text x="140" y="126" class="subtitle" font-size="9">亮</text>
    </g>

    <text x="84" y="210" class="mode-desc" text-anchor="middle">阈值矩阵决定点亮顺序</text>
    <text x="84" y="226" class="mode-use" text-anchor="middle">适合：低色数下的大面积渐变</text>
  </g>

  <!-- ====== Mode 4: Stylized Pattern ====== -->
  <g transform="translate(585, 55)">
    <rect x="0" y="0" width="168" height="240" class="mode-box" rx="4"/>
    <text x="84" y="22" class="mode-title" text-anchor="middle">④ 风格化图案 (Stylized)</text>

    <g transform="translate(10, 32)">
      <rect x="0" y="0" width="148" height="148" class="grid-bg" rx="2"/>
      <!-- Stylized: using small shapes instead of dots -->
      <!-- Left (dark): crosses/dots -->
      <rect x="2" y="2" width="4" height="12" class="cell-dark"/>
      <rect x="0" y="6" width="12" height="4" class="cell-dark"/>
      <rect x="16" y="4" width="4" height="8" class="cell-dark"/>
      <rect x="14" y="6" width="8" height="4" class="cell-dark"/>
      <rect x="0" y="16" width="12" height="4" class="cell-dark"/>
      <rect x="2" y="14" width="4" height="10" class="cell-dark"/>
      <rect x="16" y="18" width="8" height="4" class="cell-dark"/>
      <rect x="18" y="16" width="4" height="8" class="cell-dark"/>

      <!-- Mid: smaller patterns -->
      <rect x="30" y="0" width="6" height="6" class="cell-mid"/>
      <rect x="42" y="4" width="6" height="6" class="cell-mid"/>
      <rect x="30" y="14" width="6" height="6" class="cell-mid"/>
      <rect x="44" y="16" width="6" height="6" class="cell-mid"/>
      <rect x="34" y="24" width="6" height="6" class="cell-mid"/>

      <rect x="56" y="2" width="8" height="2" class="cell-mid"/>
      <rect x="58" y="0" width="2" height="8" class="cell-mid"/>
      <rect x="56" y="12" width="8" height="2" class="cell-mid"/>
      <rect x="58" y="10" width="2" height="8" class="cell-mid"/>
      <rect x="56" y="22" width="8" height="2" class="cell-light"/>

      <!-- Right: lighter -->
      <rect x="70" y="0" width="6" height="6" class="cell-light"/>
      <rect x="82" y="4" width="6" height="6" class="cell-light"/>
      <rect x="74" y="14" width="6" height="6" class="cell-light"/>
      <rect x="86" y="16" width="6" height="6" class="cell-white"/>
      <rect x="78" y="24" width="6" height="6" class="cell-white"/>

      <rect x="98" y="2" width="4" height="4" class="cell-light"/>
      <rect x="108" y="6" width="4" height="4" class="cell-white"/>
      <rect x="100" y="16" width="4" height="4" class="cell-white"/>
      <rect x="112" y="14" width="4" height="4" class="cell-white"/>
      <rect x="104" y="24" width="4" height="4" class="cell-white"/>

      <!-- Next row -->
      <rect x="0" y="34" width="6" height="6" class="cell-dark"/>
      <rect x="16" y="36" width="6" height="6" class="cell-mid"/>
      <rect x="30" y="40" width="6" height="6" class="cell-mid"/>
      <rect x="46" y="38" width="6" height="6" class="cell-light"/>
      <rect x="62" y="44" width="6" height="6" class="cell-light"/>
      <rect x="78" y="40" width="6" height="6" class="cell-white"/>
      <rect x="96" y="42" width="6" height="6" class="cell-white"/>

      <!-- Diagonal slash pattern -->
      <rect x="0" y="52" width="2" height="8" class="cell-dark"/>
      <rect x="8" y="58" width="2" height="8" class="cell-dark"/>
      <rect x="18" y="52" width="2" height="8" class="cell-mid"/>
      <rect x="26" y="58" width="2" height="8" class="cell-mid"/>
      <rect x="36" y="52" width="2" height="8" class="cell-light"/>
      <rect x="44" y="58" width="2" height="8" class="cell-light"/>
      <rect x="54" y="52" width="2" height="8" class="cell-white"/>
      <rect x="62" y="58" width="2" height="8" class="cell-white"/>

      <rect x="0" y="70" width="4" height="4" class="cell-mid"/>
      <rect x="14" y="76" width="4" height="4" class="cell-light"/>
      <rect x="28" y="72" width="4" height="4" class="cell-light"/>
      <rect x="44" y="78" width="4" height="4" class="cell-white"/>
      <rect x="60" y="74" width="4" height="4" class="cell-white"/>
      <rect x="76" y="80" width="4" height="4" class="cell-white"/>

      <!-- Wavy pattern -->
      <rect x="0" y="88" width="4" height="2" class="cell-mid"/>
      <rect x="6" y="90" width="4" height="2" class="cell-mid"/>
      <rect x="14" y="88" width="4" height="2" class="cell-light"/>
      <rect x="20" y="90" width="4" height="2" class="cell-light"/>
      <rect x="28" y="88" width="4" height="2" class="cell-white"/>
      <rect x="34" y="90" width="4" height="2" class="cell-white"/>
      <rect x="44" y="88" width="4" height="2" class="cell-white"/>

      <rect x="0" y="0" width="148" height="10" rx="2" fill="url(#grayGrad)" transform="translate(0, 100)"/>
      <text x="0" y="126" class="subtitle" font-size="9">暗</text>
      <text x="140" y="126" class="subtitle" font-size="9">亮</text>
    </g>

    <text x="84" y="210" class="mode-desc" text-anchor="middle">用小形状(×、/、□)代替点</text>
    <text x="84" y="226" class="mode-use" text-anchor="middle">适合：16-bit时代复古风、装饰性</text>
  </g>

  <!-- Gradient definition -->
  <defs>
    <linearGradient id="grayGrad" x1="0" y1="0" x2="1" y2="0">
      <stop offset="0%" stop-color="#2C3E50"/>
      <stop offset="25%" stop-color="#5D6D7E"/>
      <stop offset="50%" stop-color="#aab7c4"/>
      <stop offset="75%" stop-color="#d5dbe0"/>
      <stop offset="100%" stop-color="#f5f5f5"/>
    </linearGradient>
  </defs>

  <!-- Bottom rules -->
  <text x="400" y="325" class="subtitle" text-anchor="middle">选择抖动模式的三条规则：</text>
  <text x="400" y="345" class="subtitle" text-anchor="middle">① 大面积均匀过渡 → 有序或Bayer　② 自然有机物表面 → 随机　③ 风格化需求 → 自定义图案</text>

    <text x="400" y="396" class="subtitle" text-anchor="middle">原理都是"用离散值模拟连续信号"，只是画面上你要手动控制每个"采样点"的位置。</text>
</svg>